<svg width="117" height="40" viewBox="0 0 117 40" fill="none" xmlns="http://www.w3.org/2000/svg">
<g clip-path="url(#clip0)">
<path d="M29.9268 17.4751C29.9268 15.9736 29.8448 11.3438 34.9282 11.3438C39.6017 11.3438 39.9296 15.2645 39.9296 17.4751V21.9381C39.9296 23.398 40.0116 28.0695 34.9282 28.0695C29.8448 28.0695 29.9268 23.398 29.9268 21.8964V17.4751ZM36.5271 17.8505C36.5271 15.8902 36.4861 14.3469 34.9282 14.3469C33.3294 14.3469 33.3294 15.8902 33.3294 17.8505V21.4793C33.3294 23.4397 33.3704 24.983 34.9282 24.983C36.5271 24.983 36.5271 23.4397 36.5271 21.4793V17.8505Z" fill="black"/>
<path d="M42.1025 12.3459C42.1025 11.9288 42.1435 11.5117 42.9224 11.5117H44.7262C45.5051 11.5117 45.5461 11.9288 45.5461 12.3459V27.0696C45.5461 27.8621 45.1362 27.9038 44.7262 27.9038H42.9224C42.5125 27.9038 42.1025 27.8621 42.1025 27.0696V12.3459Z" fill="black"/>
<path d="M47.8018 12.3459C47.8018 11.9288 47.8428 11.5117 48.6217 11.5117H50.4254C51.2044 11.5117 51.2453 11.9288 51.2453 12.3459V24.567C51.2453 24.7338 51.2863 24.859 51.4913 24.859H55.7548C56.3287 24.859 56.3697 25.1926 56.3697 25.4429V27.0696C56.3697 27.4867 56.3287 27.9038 55.5498 27.9038H48.6217C48.2117 27.9038 47.8018 27.8621 47.8018 27.0696V12.3459Z" fill="black"/>
<path d="M63.0912 11.5117C67.3547 11.5117 68.6255 14.056 68.6255 16.0998C68.6255 18.5607 67.2727 19.812 66.2888 20.1457C66.2068 20.1874 66.0838 20.2291 66.0838 20.3543C66.0838 20.4794 66.1248 20.6045 66.2068 20.7297L69.0765 27.0279C69.2814 27.445 69.0765 27.8621 68.5845 27.8621H66.2068C65.5919 27.8621 65.4689 27.6118 65.3459 27.3616L62.5992 21.2719C62.5173 21.105 62.3123 20.9382 62.1073 20.9382H61.6564C61.4104 20.9382 61.4104 21.0633 61.4104 21.2302V27.0279C61.4104 27.8204 61.0004 27.8621 60.5905 27.8621H58.7867C58.3767 27.8621 57.9668 27.8204 57.9668 27.0279V12.3459C57.9668 11.9288 58.0078 11.5117 58.7867 11.5117H63.0912ZM61.4514 17.7682C61.4514 18.0185 61.4924 18.1019 61.7793 18.1019H62.8452C64.1161 18.1019 64.977 17.3928 64.977 16.3084C64.977 15.4742 64.485 14.5148 62.8452 14.5148H61.8203C61.6154 14.5148 61.4104 14.5566 61.4104 14.9319V17.7682H61.4514Z" fill="#629C45"/>
<path d="M74.1604 22.2292C73.9144 22.2292 73.8734 22.3961 73.8734 22.5212V23.272C73.8734 25.1072 75.6772 25.2323 76.1281 25.2323C77.03 25.2323 78.0549 25.0238 78.7108 24.7735C79.0388 24.6484 79.2848 24.8152 79.2848 25.1489V27.0676C79.2848 27.2761 79.2028 27.443 78.8338 27.5681C77.727 27.9852 76.4561 28.0686 75.8822 28.0686C74.0784 28.0686 70.7168 27.6098 70.7168 23.3554V19.3929C70.7168 17.6411 71.1677 14.6797 75.1033 14.6797C76.2101 14.6797 79.4077 14.8465 79.4077 19.3929V21.6036C79.4077 22.2292 79.0798 22.2709 78.7518 22.2709H74.1604V22.2292ZM76.0872 19.6849C76.3331 19.6849 76.3331 19.5181 76.3331 19.4346V18.9341C76.3331 18.3919 76.2511 17.2657 75.1443 17.2657C73.9554 17.2657 73.9144 18.4753 73.9144 18.9341V19.4346C73.9144 19.6432 74.0374 19.6849 74.1604 19.6849H76.0872Z" fill="#629C45"/>
<path d="M81.1298 25.3992C81.1298 25.2323 81.0888 24.857 81.4988 24.857C81.6218 24.857 81.8268 24.9404 82.1547 25.0238C82.7696 25.1906 83.7945 25.3992 84.4094 25.3992C85.4343 25.3992 85.7623 24.857 85.7623 24.3564C85.7623 23.4805 84.6554 22.8966 83.8355 22.3126C82.8106 21.5619 81.1298 20.4357 81.1298 18.225C81.1298 16.8903 81.8268 14.6797 85.1474 14.6797C88.5499 14.6797 88.5089 15.6807 88.5089 15.8893V17.3491C88.5089 17.516 88.509 17.8497 88.058 17.8497C85.7623 17.8497 87.2791 17.3908 85.4753 17.3908C84.6144 17.3908 84.4504 17.9331 84.4504 18.1833C84.4504 19.0175 85.8033 19.6849 86.5822 20.2688C87.894 21.2282 89.0419 22.2709 89.0419 24.3147C89.0419 26.6922 87.2381 28.1103 84.5734 28.1103C81.0888 28.1103 81.0479 27.2344 81.0479 26.9842V25.3992H81.1298Z" fill="#629C45"/>
<path d="M99.3307 27.2356C99.3307 27.8612 99.0027 27.9029 98.6748 27.9029H96.625C96.3791 27.9029 96.1741 27.7361 96.1741 27.4441V27.3607C96.1741 27.1939 96.0511 27.1939 95.9691 27.1939C95.8871 27.1939 95.8461 27.2773 95.8051 27.319C95.2312 27.8612 94.4523 28.0698 93.7964 28.0698C92.4025 28.0698 90.8447 27.1939 90.8447 24.5661V15.515C90.8447 14.8894 91.1727 14.8477 91.5006 14.8477H93.3454C93.6324 14.8477 94.0013 14.8894 94.0013 15.515V23.8988C94.0013 24.5244 94.4113 24.9832 95.0672 24.9832C96.2151 24.9832 96.1741 23.7736 96.1741 23.2731V15.515C96.1741 14.8894 96.502 14.8477 96.83 14.8477H98.6748C98.9618 14.8477 99.3307 14.8894 99.3307 15.515V27.2356Z" fill="#629C45"/>
<path d="M104.744 27.2344C104.744 27.8601 104.416 27.9018 104.088 27.9018H102.243C101.628 27.9018 101.587 27.5681 101.587 27.2344V15.5556C101.587 14.9299 101.915 14.8882 102.243 14.8882H104.334C104.457 14.8882 104.744 14.8882 104.744 15.2219V15.4722C104.744 15.639 104.826 15.639 104.867 15.639C104.908 15.639 104.99 15.5973 105.194 15.4305C105.645 15.0968 106.219 14.6797 107.244 14.6797C107.9 14.6797 107.941 14.9299 107.941 15.2219V17.516C107.941 17.9748 107.531 17.9748 107.408 17.9748H106.998C106.67 17.9748 106.014 18.0165 105.481 18.6004C104.744 19.3929 104.785 20.4774 104.785 21.2699V27.2344H104.744Z" fill="#629C45"/>
<path d="M109.009 25.3992C109.009 25.2323 108.968 24.857 109.378 24.857C109.501 24.857 109.706 24.9404 110.034 25.0238C110.649 25.1906 111.673 25.3992 112.288 25.3992C113.313 25.3992 113.641 24.857 113.641 24.3564C113.641 23.4805 112.534 22.8966 111.714 22.3126C110.69 21.5619 109.009 20.4357 109.009 18.225C109.009 16.8903 109.706 14.6797 113.026 14.6797C116.429 14.6797 116.388 15.6807 116.388 15.8893V17.3491C116.388 17.516 116.388 17.8497 115.937 17.8497C113.641 17.8497 115.158 17.3908 113.354 17.3908C112.493 17.3908 112.329 17.9331 112.329 18.1833C112.329 19.0175 113.682 19.6849 114.461 20.2688C115.773 21.2282 116.921 22.2709 116.921 24.3147C116.921 26.6922 115.117 28.1103 112.452 28.1103C108.968 28.1103 108.927 27.2344 108.927 26.9842V25.3992H109.009Z" fill="#629C45"/>
<path d="M30.0508 38.1243V32.5352H31.1576V34.7458H32.7975V32.5352H33.9453V38.1243H32.7975V35.6217H31.1576V38.1243H30.0508Z" fill="black"/>
<path d="M39.4373 35.4954H36.3217C36.3217 36.2462 36.4037 36.7468 36.6086 36.997C36.8136 37.2473 37.0596 37.3724 37.3465 37.3724C37.8385 37.3724 38.1665 37.0387 38.2894 36.3297L39.3143 36.4548C39.0273 37.6227 38.3714 38.2066 37.3056 38.2066C36.6496 38.2066 36.1167 37.9563 35.7067 37.4975C35.2968 36.997 35.1328 36.3297 35.1328 35.3703C35.1328 34.411 35.3378 33.6602 35.7477 33.1597C36.1577 32.6174 36.6906 32.3672 37.3465 32.3672C37.7975 32.3672 38.2074 32.4923 38.5354 32.7426C38.8634 32.9928 39.0683 33.3265 39.1913 33.7853C39.3553 34.2441 39.4373 34.8281 39.4373 35.4954ZM38.2894 34.703C38.2894 33.7019 37.9615 33.2431 37.3465 33.2431C36.7726 33.2431 36.4447 33.7436 36.3627 34.703H38.2894Z" fill="black"/>
<path d="M42.5955 40.0006V38.1236C41.8576 38.0402 41.2837 37.7482 40.9148 37.2477C40.5458 36.7472 40.3408 36.1215 40.3408 35.4125C40.3408 33.7858 41.0787 32.8681 42.5955 32.5762V30.6992H43.5794V32.5345C45.0962 32.8264 45.8342 33.7858 45.8342 35.3708C45.8342 36.1215 45.6292 36.7472 45.2602 37.2477C44.8913 37.7482 44.3173 38.0402 43.5794 38.1236V40.0006H42.5955ZM42.5955 37.3728V33.2852C41.8166 33.5355 41.4477 34.2029 41.4477 35.329C41.4477 36.4552 41.8166 37.1643 42.5955 37.3728ZM43.5794 37.3728C44.3583 37.1226 44.7273 36.4552 44.7273 35.329C44.7273 34.2029 44.3583 33.5355 43.5794 33.2852V37.3728Z" fill="black"/>
<path d="M47.596 38.1243V33.4111H46.3252V32.5352H49.9328V33.4111H48.7029V38.1243H47.596Z" fill="black"/>
<path d="M53.3774 38.1243V35.9137H52.3935L51.5736 38.1243H50.4258L51.4917 35.6634C50.9587 35.4132 50.6718 34.9543 50.6718 34.287C50.6718 33.7865 50.7947 33.3694 50.9997 33.0357C51.2047 32.702 51.6966 32.5352 52.3525 32.5352H54.5253V38.1243H53.3774ZM53.3774 35.1212V33.3276H52.5165C52.2296 33.3276 52.0656 33.4111 51.9426 33.5362C51.8196 33.703 51.7376 33.9116 51.7376 34.2453C51.7376 34.4955 51.7786 34.7041 51.9016 34.8709C52.0246 35.0378 52.2296 35.1212 52.5985 35.1212H53.3774Z" fill="black"/>
<path d="M55.9609 38.1243V32.5352H57.1088V34.7458H58.7486V32.5352H59.8965V38.1243H58.7486V35.6217H57.1088V38.1243H55.9609Z" fill="black"/>
<path d="M62.4368 34.1203L61.33 33.9951C61.412 33.4946 61.6169 33.1192 61.9859 32.8273C62.3548 32.5353 62.8058 32.4102 63.3797 32.4102C63.8717 32.4102 64.2816 32.4936 64.5686 32.7021C64.8556 32.9107 65.0605 33.1609 65.1425 33.4112C65.2245 33.7032 65.2655 34.1203 65.2655 34.6625V36.5812C65.2655 37.3319 65.3065 37.8742 65.3475 38.1244H64.2816C64.2406 37.9159 64.1996 37.6239 64.1996 37.2068C63.8717 37.9159 63.3387 38.2913 62.6418 38.2913C62.1909 38.2913 61.8219 38.1661 61.535 37.8742C61.248 37.5822 61.125 37.2068 61.125 36.7063C61.125 36.0806 61.33 35.6218 61.7399 35.2464C62.1499 34.9128 62.8468 34.7042 63.8717 34.7042C63.9127 34.7042 63.9947 34.7042 64.1176 34.7042V34.4957C64.1176 34.0786 64.0766 33.7866 63.9537 33.578C63.8307 33.3695 63.6257 33.2861 63.3387 33.2861C62.8058 33.2444 62.5188 33.5363 62.4368 34.1203ZM64.1176 35.4133C63.9537 35.4133 63.8717 35.3716 63.7897 35.3716C62.8058 35.3716 62.3139 35.747 62.3139 36.5394C62.3139 37.1234 62.5598 37.4154 63.0518 37.4154C63.3387 37.4154 63.5847 37.2485 63.7897 36.9565C63.9947 36.6646 64.1176 36.2058 64.1176 35.6635V35.4133Z" fill="black"/>
<path d="M69.1587 38.1243V35.9137H68.1748L67.3549 38.1243H66.207L67.2729 35.6634C66.74 35.4132 66.453 34.9543 66.453 34.287C66.453 33.7865 66.576 33.3694 66.781 33.0357C66.9859 32.702 67.4779 32.5352 68.1338 32.5352H70.3065V38.1243H69.1587ZM69.1587 35.1212V33.3276H68.2978C68.0108 33.3276 67.8468 33.4111 67.7238 33.5362C67.6009 33.703 67.5189 33.9116 67.5189 34.2453C67.5189 34.4955 67.5599 34.7041 67.6829 34.8709C67.8058 35.0378 68.0108 35.1212 68.3798 35.1212H69.1587Z" fill="black"/>
<path d="M74.7382 32.5352H75.8861V35.0378L77.6489 32.5352H78.7558L77.3209 34.4538L78.8787 38.1243H77.6489L76.542 35.3297L75.8041 36.3725V38.1243H74.6562V32.5352H74.7382Z" fill="black"/>
<path d="M83.6717 35.2882C83.6717 37.2903 82.9338 38.2496 81.4989 38.2496C80.843 38.2496 80.3101 37.9993 79.9411 37.5405C79.5722 37.04 79.3672 36.3309 79.3672 35.3299C79.3672 33.3695 80.1051 32.4102 81.5399 32.4102C82.1958 32.4102 82.7288 32.6604 83.0977 33.1192C83.5077 33.578 83.6717 34.3288 83.6717 35.2882ZM82.4828 35.3299C82.4828 34.5374 82.4008 33.9951 82.2368 33.7032C82.0729 33.4112 81.8269 33.2444 81.5399 33.2444C80.925 33.2444 80.597 33.9117 80.597 35.2882C80.597 35.9972 80.679 36.4978 80.802 36.8314C80.966 37.1651 81.212 37.332 81.5399 37.332C81.8679 37.332 82.1139 37.1651 82.2778 36.8314C82.4008 36.5395 82.4828 36.0389 82.4828 35.3299Z" fill="black"/>
<path d="M84.9414 38.1243V32.5352H86.5812L87.7291 37.2067L88.8359 32.5352H90.3938V38.1243H89.3689V33.5779L88.18 38.1243H87.0322L85.8433 33.5779V38.1243H84.9414Z" fill="black"/>
<path d="M91.9531 38.1243V32.5352H95.6427V38.1243H94.4948V33.3276H93.06V38.1243H91.9531Z" fill="black"/>
<path d="M98.2259 34.1203L97.119 33.9951C97.201 33.4946 97.406 33.1192 97.775 32.8273C98.1439 32.5353 98.6359 32.4102 99.1688 32.4102C99.6607 32.4102 100.071 32.4936 100.358 32.7021C100.645 32.9107 100.85 33.1609 100.932 33.4112C101.014 33.7032 101.055 34.1203 101.055 34.6625V36.5812C101.055 37.3319 101.096 37.8742 101.137 38.1244H100.071C100.03 37.9159 99.9887 37.6239 99.9887 37.2068C99.6607 37.9159 99.1278 38.2913 98.4309 38.2913C97.9799 38.2913 97.611 38.1661 97.324 37.8742C97.037 37.5822 96.9141 37.2068 96.9141 36.7063C96.9141 36.0806 97.119 35.6218 97.529 35.2464C97.9389 34.9128 98.6359 34.7042 99.6607 34.7042C99.7017 34.7042 99.7837 34.7042 99.9067 34.7042V34.4957C99.9067 34.0786 99.8657 33.7866 99.7427 33.578C99.6197 33.3695 99.4148 33.2861 99.1278 33.2861C98.5949 33.2444 98.3079 33.5363 98.2259 34.1203ZM99.9067 35.4133C99.7427 35.4133 99.6607 35.3716 99.5787 35.3716C98.5949 35.3716 98.1029 35.747 98.1029 36.5394C98.1029 37.1234 98.3489 37.4154 98.8408 37.4154C99.1278 37.4154 99.3738 37.2485 99.5787 36.9565C99.7837 36.6646 99.9067 36.2058 99.9067 35.6635V35.4133Z" fill="black"/>
<path d="M102.531 38.1243V32.5352H103.679V34.7458H105.319V32.5352H106.467V38.1243H105.319V35.6217H103.679V38.1243H102.531Z" fill="black"/>
<path d="M109.088 37.5404V38.1243H107.94V32.5352H109.088V34.9543C109.088 35.5383 109.088 35.9137 109.047 36.1222C109.211 35.7885 109.416 35.4132 109.621 35.0378L110.728 33.2442V32.5352H111.876V38.1243H110.728V35.8303C110.728 35.2046 110.728 34.8292 110.769 34.6624C110.605 35.0795 110.4 35.4549 110.113 35.872L109.088 37.5404Z" fill="black"/>
<path d="M115.893 38.1243V35.9137H114.909L114.089 38.1243H112.941L114.007 35.6634C113.474 35.4132 113.187 34.9543 113.187 34.287C113.187 33.7865 113.31 33.3694 113.515 33.0357C113.72 32.702 114.212 32.5352 114.868 32.5352H117.041V38.1243H115.893ZM115.893 35.1212V33.3276H115.032C114.745 33.3276 114.581 33.4111 114.458 33.5362C114.335 33.703 114.253 33.9116 114.253 34.2453C114.253 34.4955 114.294 34.7041 114.417 34.8709C114.54 35.0378 114.745 35.1212 115.114 35.1212H115.893Z" fill="black"/>
<path d="M0.174081 28.2454C-0.502217 24.0321 1.45039 20.3401 2.25509 18.5166C7.68792 16.8499 19.3548 13.7095 20.2928 14.7014C21.1709 15.6301 23.5727 21.619 24.5428 24.8543L10.1867 31.176C7.27622 31.7642 0.788945 32.0759 0.174081 28.2454Z" fill="white"/>
<path d="M20.3337 14.7237C19.4318 13.1804 18.4889 11.6371 17.587 10.1773C14.4304 5.04692 12.3397 0 12.3397 0C12.3397 0 10.2079 5.04692 7.05131 10.1773C5.41151 12.805 3.60772 15.7247 2.25488 18.5193C2.70583 18.561 3.15677 18.561 3.60772 18.561C12.0937 18.6027 12.2987 14.9322 20.3337 14.7237Z" fill="url(#paint0_linear)"/>
<path d="M3.60765 28.4884C2.29581 28.4884 1.14794 28.405 0.164062 28.2382C0.942969 32.6594 4.18158 38.2486 12.2986 38.2486C21.9325 38.2486 24.7201 30.3237 24.6381 25.9024C24.6381 25.5687 24.5971 25.235 24.5561 24.8596C23.5313 24.6928 22.3834 24.6094 20.9896 24.6094C12.2986 24.6511 12.2986 28.4884 3.60765 28.4884Z" fill="url(#paint1_linear)"/>
<path d="M21.0305 16.4753C12.2985 16.4753 12.2985 20.3126 3.60757 20.3126C2.82866 20.3126 2.13174 20.2709 1.47582 20.2292C0.614926 22.273 0.0409951 24.1917 0 25.9018C0 26.0686 0 26.2772 0 26.444C1.02488 26.6109 2.21374 26.736 3.60757 26.736C12.2985 26.736 12.2985 22.8569 20.9895 22.8569C22.2193 22.8569 23.2442 22.9404 24.1871 23.0655C23.6132 20.98 22.5473 18.6859 21.3174 16.4336C21.1945 16.4753 21.1125 16.4753 21.0305 16.4753Z" fill="black"/>
</g>
<defs>
<linearGradient id="paint0_linear" x1="-2.75726" y1="9.29109" x2="26.3346" y2="9.29109" gradientUnits="userSpaceOnUse">
<stop stop-color="#8DC63F"/>
<stop offset="1" stop-color="#42712E"/>
</linearGradient>
<linearGradient id="paint1_linear" x1="-3.33339" y1="31.4557" x2="28.3326" y2="31.4557" gradientUnits="userSpaceOnUse">
<stop stop-color="#8DC63F"/>
<stop offset="1" stop-color="#42712E"/>
</linearGradient>
<clipPath id="clip0">
<rect width="117" height="40" fill="white"/>
</clipPath>
</defs>
</svg>
