<svg aria-hidden="true" style="position: absolute; width: 0; height: 0; overflow: hidden;" version="1.1" xmlns="http://www.w3.org/2000/svg" xmlns:xlink="http://www.w3.org/1999/xlink">
	<defs>
        <symbol id="chart" viewBox="0 0 32 32">
			<path d="M31.3416 26.1399H5.99177V0.658436C5.99177 0.263374 5.7284 0 5.33333 0C4.93827 0 4.6749 0.263374 4.6749 0.658436V26.1399H0.658436C0.263374 26.1399 0 26.4033 0 26.7984C0 27.1934 0.263374 27.4568 0.658436 27.4568H4.6749V31.3416C4.6749 31.7366 4.93827 32 5.33333 32C5.7284 32 5.99177 31.7366 5.99177 31.3416V27.4568H31.3416C31.7366 27.4568 32 27.1934 32 26.7984C32 26.4033 31.6708 26.1399 31.3416 26.1399Z" fill="#72AF32"/>
			<path d="M26.995 14.7476L30.5506 10.9945C30.814 10.7312 30.814 10.3361 30.5506 10.0727C30.2872 9.80936 29.8922 9.80936 29.6288 10.0727L26.1391 13.76L18.0403 5.06862C17.9086 4.93694 17.7111 4.87109 17.5794 4.87109C17.3819 4.87109 17.2502 4.93694 17.1185 5.06862L8.29546 14.4843C8.03208 14.7476 8.03208 15.1427 8.3613 15.4061C8.62467 15.6694 9.01974 15.6694 9.28311 15.3402L17.5136 6.45134L25.1514 14.7476L21.7276 18.369L17.6453 13.2332C17.5136 13.1015 17.3819 12.9699 17.1843 12.9699C16.9868 12.9699 16.7893 13.0357 16.6576 13.1674L8.3613 21.332C8.09793 21.5954 8.09793 21.9904 8.3613 22.2538C8.49299 22.3855 8.69052 22.4513 8.82221 22.4513C9.01974 22.4513 9.15142 22.3855 9.28311 22.2538L17.1185 14.5501L21.2008 19.7517C21.3325 19.8834 21.53 20.0151 21.6617 20.0151C21.8592 20.0151 22.0568 19.9493 22.1885 19.8176L26.0732 15.7353L29.5629 19.5542C29.6946 19.6859 29.8922 19.7517 30.0239 19.7517C30.1555 19.7517 30.3531 19.6859 30.4848 19.5542C30.7481 19.2908 30.7481 18.8958 30.5506 18.6324L26.995 14.7476Z" fill="#72AF32"/>
		</symbol>
		<symbol id="tablet" viewBox="0 0 38 38">
			<path d="M11.8038 8.30382H26.1507C26.4216 8.30382 26.6409 8.08344 26.6409 7.81258C26.6409 7.5407 26.4216 7.32031 26.1507 7.32031H11.8038C11.5319 7.32031 11.3115 7.5407 11.3115 7.81258C11.3115 8.08344 11.5319 8.30382 11.8038 8.30382Z" fill="#72AF32" stroke="#72AF32" stroke-width="0.2"/>
			<path d="M6.15234 5.91028V33.4579C6.15543 34.3085 6.84441 34.9975 7.69404 34.9996H30.2592C31.1109 34.9975 31.7999 34.3085 31.8009 33.4579V5.91028C31.7999 5.05859 31.1109 4.36961 30.2592 4.36859H22.766C22.5188 2.27592 20.6229 0.779537 18.5302 1.0267C16.7774 1.23267 15.3953 2.61577 15.1883 4.36859H7.69404C6.84338 4.36961 6.15337 5.05859 6.15234 5.91028ZM30.8143 33.4579C30.8143 33.7658 30.5651 34.015 30.2572 34.015H7.69404C7.38611 34.015 7.13689 33.7658 7.13689 33.4579V10.6723H30.8184L30.8143 33.4579ZM18.9771 1.97417C20.3716 1.97623 21.5549 2.99167 21.7722 4.36859H16.1955C16.4107 2.99682 17.5879 1.98241 18.9771 1.97417ZM30.2592 5.35107C30.5682 5.35107 30.8184 5.60235 30.8184 5.91028V9.68779H7.13689V5.91028C7.13689 5.60235 7.38611 5.35107 7.69404 5.35107H30.2592Z" fill="#72AF32" stroke="#72AF32" stroke-width="0.2"/>
			<path d="M18.3885 17H27.6096C27.8243 17 27.999 16.7759 27.999 16.5005C27.999 16.223 27.8243 16 27.6096 16H18.3885C18.1729 16 17.999 16.223 17.999 16.5005C17.999 16.7759 18.1729 17 18.3885 17Z" fill="#72AF32" stroke="#72AF32" stroke-width="0.2"/>
			<path d="M18.3885 22H27.6096C27.8243 22 27.999 21.7762 27.999 21.5C27.999 21.2238 27.8243 21 27.6096 21H18.3885C18.1729 21 17.999 21.2238 17.999 21.5C17.999 21.7762 18.1729 22 18.3885 22Z" fill="#72AF32" stroke="#72AF32" stroke-width="0.2"/>
			<path d="M18.3885 27H27.6096C27.8243 27 27.999 26.7751 27.999 26.5C27.999 26.2238 27.8243 26 27.6096 26H18.3885C18.1729 26 17.999 26.2238 17.999 26.5C17.999 26.7751 18.1729 27 18.3885 27Z" fill="#72AF32" stroke="#72AF32" stroke-width="0.2"/>
			<path d="M11.1838 18.3702C11.2611 18.4804 11.3795 18.5535 11.5113 18.5741H11.5844C11.6926 18.5741 11.7986 18.5371 11.8862 18.4691L15.02 16.0201C15.2559 15.8831 15.3362 15.5824 15.2003 15.3476C15.0643 15.1118 14.7636 15.0314 14.5288 15.1684C14.4876 15.191 14.4505 15.2209 14.4176 15.2549L11.6915 17.3877L11.2157 16.7091C11.0602 16.4866 10.7533 16.431 10.5309 16.5875C10.3084 16.743 10.2528 17.0499 10.4094 17.2724L11.1838 18.3702Z" fill="#72AF32" stroke="#72AF32" stroke-width="0.2"/>
			<path d="M11.1847 23.4265C11.2619 23.5367 11.3804 23.6109 11.5122 23.6315H11.5853C11.6935 23.6304 11.7995 23.5934 11.8871 23.5254L15.0209 21.0754C15.2413 20.9147 15.2877 20.6068 15.126 20.3874C14.9653 20.1691 14.6574 20.1217 14.438 20.2844C14.4308 20.2896 14.4226 20.2958 14.4154 20.3019L11.6924 22.4368L11.2166 21.7582C11.0951 21.5151 10.7995 21.4162 10.5575 21.5367C10.3145 21.6583 10.2156 21.9538 10.3371 22.1979C10.3567 22.236 10.3804 22.2731 10.4103 22.305L11.1847 23.4265Z" fill="#72AF32" stroke="#72AF32" stroke-width="0.2"/>
			<path d="M11.1828 28.4979C11.2601 28.6071 11.3785 28.6802 11.5103 28.7008H11.5834C11.6916 28.7008 11.7977 28.6637 11.8852 28.5958L15.019 26.1457C15.2394 25.9841 15.2858 25.6761 15.1241 25.4578C14.9634 25.2384 14.6555 25.1931 14.4361 25.3538C14.4289 25.36 14.4207 25.3651 14.4135 25.3713L11.6875 27.5L11.2127 26.8213C11.0562 26.5989 10.7493 26.5443 10.5268 26.6998C10.3033 26.8563 10.2498 27.1632 10.4053 27.3857L11.1828 28.4979Z" fill="#72AF32" stroke="#72AF32" stroke-width="0.2"/>
		</symbol>
		<symbol id="product" viewBox="0 0 35 35">
			<path d="M26.25 15.3125V9.29688C26.25 8.86175 26.0771 8.44445 25.7695 8.13678C25.4618 7.8291 25.0445 7.65625 24.6094 7.65625C24.1743 7.65625 23.757 7.8291 23.4493 8.13678C23.1416 8.44445 22.9688 8.86175 22.9688 9.29688V15.3125C22.9688 15.7476 23.1416 16.1649 23.4493 16.4726C23.757 16.7803 24.1743 16.9531 24.6094 16.9531C25.0445 16.9531 25.4618 16.7803 25.7695 16.4726C26.0771 16.1649 26.25 15.7476 26.25 15.3125ZM24.0625 15.3125V9.29688C24.0625 9.15183 24.1201 9.01273 24.2227 8.91018C24.3252 8.80762 24.4643 8.75 24.6094 8.75C24.7544 8.75 24.8935 8.80762 24.9961 8.91018C25.0986 9.01273 25.1562 9.15183 25.1562 9.29688V15.3125C25.1562 15.4575 25.0986 15.5966 24.9961 15.6992C24.8935 15.8018 24.7544 15.8594 24.6094 15.8594C24.4643 15.8594 24.3252 15.8018 24.2227 15.6992C24.1201 15.5966 24.0625 15.4575 24.0625 15.3125Z" fill="#72AF32"/>
			<path d="M14.7656 3.82812H11.4844C11.3393 3.82812 11.2002 3.88574 11.0977 3.9883C10.9951 4.09086 10.9375 4.22996 10.9375 4.375V6.08487C10.4682 6.20672 10.0526 6.48074 9.75574 6.86405C9.45886 7.24736 9.29748 7.7183 9.29688 8.20312V12.8985L8.91017 13.2852C8.85938 13.3359 8.8191 13.3962 8.79162 13.4626C8.76414 13.5289 8.75 13.6001 8.75 13.6719V15.8594H9.84375V13.8983L17.1796 6.5625H24.6094C25.3343 6.56331 26.0294 6.85166 26.542 7.36428C27.0546 7.8769 27.3429 8.57192 27.3438 9.29688V31.7188C27.3434 32.0087 27.2281 32.2867 27.023 32.4918C26.818 32.6968 26.54 32.8122 26.25 32.8125H25.7031V33.9062H26.25C26.83 33.9056 27.386 33.6749 27.7961 33.2648C28.2062 32.8547 28.4368 32.2987 28.4375 31.7188V9.29688C28.4364 8.28194 28.0327 7.30891 27.315 6.59124C26.5973 5.87358 25.6243 5.46989 24.6094 5.46875H16.9531C16.8813 5.46875 16.8102 5.48289 16.7438 5.51037C16.6775 5.53785 16.6172 5.57813 16.5664 5.62892L16.1797 6.01562H15.3125V4.375C15.3125 4.22996 15.2549 4.09086 15.1523 3.9883C15.0498 3.88574 14.9107 3.82812 14.7656 3.82812ZM14.2188 4.92188V6.01562H12.0312V4.92188H14.2188ZM10.3906 11.8047V8.20312C10.391 7.91315 10.5063 7.63515 10.7114 7.43011C10.9164 7.22506 11.1944 7.10972 11.4844 7.10938H15.086L10.3906 11.8047Z" fill="#72AF32"/>
			<path d="M6.56251 18.9734V32.2656C6.56299 32.7006 6.736 33.1176 7.04357 33.4252C7.35114 33.7328 7.76816 33.9058 8.20313 33.9062H14.7656V32.8125H8.20313C8.05814 32.8123 7.91914 32.7547 7.81661 32.6521C7.71409 32.5496 7.65642 32.4106 7.65626 32.2656V30.625H13.6719C13.8169 30.625 13.956 30.5674 14.0586 30.4648C14.1611 30.3623 14.2188 30.2232 14.2188 30.0781V21.3281C14.2188 21.1831 14.1611 21.044 14.0586 20.9414C13.956 20.8389 13.8169 20.7812 13.6719 20.7812H7.65626V18.9734C7.65593 18.8439 7.70174 18.7184 7.78547 18.6196C7.86921 18.5208 7.9854 18.455 8.11324 18.434L14.3086 17.4014C14.4229 17.3824 14.5282 17.3275 14.6092 17.2448C14.6903 17.1621 14.7431 17.0558 14.7598 16.9412L14.9181 15.8594H16.4063V18.5938H17.5V13.125C17.5 12.98 17.4424 12.8409 17.3398 12.7383C17.2373 12.6357 17.0982 12.5781 16.9531 12.5781H14.7656C14.6343 12.5781 14.5074 12.6254 14.408 12.7113C14.3086 12.7971 14.2435 12.9159 14.2245 13.0458L13.7355 16.3881L7.93339 17.3551C7.54986 17.418 7.20125 17.6154 6.95005 17.9119C6.69884 18.2085 6.56145 18.5848 6.56251 18.9734ZM13.125 21.875V29.5312H7.65626V21.875H13.125ZM16.4063 13.6719V14.7656H15.0782L15.2383 13.6719H16.4063Z" fill="#72AF32"/>
			<path d="M21.3281 16.4062H19.1406C18.9956 16.4062 18.8565 16.4639 18.7539 16.5664C18.6514 16.669 18.5938 16.8081 18.5938 16.9531V18.831L16.1249 20.3123C16.0439 20.3609 15.9769 20.4296 15.9304 20.5118C15.8838 20.594 15.8594 20.6868 15.8594 20.7812V32.2656C15.8599 32.7006 16.0329 33.1176 16.3405 33.4252C16.648 33.7327 17.065 33.9057 17.5 33.9062H22.9688C23.4037 33.9057 23.8207 33.7327 24.1283 33.4252C24.4359 33.1176 24.6089 32.7006 24.6094 32.2656V20.7812C24.6094 20.6868 24.5849 20.594 24.5384 20.5118C24.4919 20.4296 24.4248 20.3609 24.3439 20.3123L21.875 18.831V16.9531C21.875 16.8081 21.8174 16.669 21.7148 16.5664C21.6123 16.4639 21.4732 16.4062 21.3281 16.4062ZM20.7812 17.5V18.5938H19.6875V17.5H20.7812ZM16.9531 24.0625H23.5156V28.9844H16.9531V24.0625ZM22.9688 32.8125H17.5C17.355 32.8123 17.216 32.7547 17.1135 32.6521C17.011 32.5496 16.9533 32.4106 16.9531 32.2656V30.0781H23.5156V32.2656C23.5155 32.4106 23.4578 32.5496 23.3553 32.6521C23.2527 32.7547 23.1137 32.8123 22.9688 32.8125ZM23.5156 22.9688H16.9531V21.0908L19.2921 19.6875H21.1766L23.5156 21.0908V22.9688Z" fill="#72AF32"/>
		</symbol>
	</defs>
</svg>