<?xml version="1.0" encoding="utf-8"?><svg width="117" height="40" fill="none" xmlns="http://www.w3.org/2000/svg" viewBox="0 0 117 40"><g clip-path="url(#bclip0)"><path d="M29.927 17.475c0-1.501-.082-6.131 5.001-6.131 4.674 0 5.002 3.92 5.002 6.131v4.463c0 1.46.082 6.132-5.002 6.132-5.083 0-5.001-4.672-5.001-6.174v-4.42zm6.6.375c0-1.96-.04-3.503-1.599-3.503-1.599 0-1.599 1.543-1.599 3.504v3.628c0 1.96.041 3.504 1.6 3.504 1.598 0 1.598-1.543 1.598-3.504v-3.628zM42.102 12.346c0-.417.042-.834.82-.834h1.804c.78 0 .82.417.82.834V27.07c0 .792-.41.834-.82.834h-1.804c-.41 0-.82-.042-.82-.834V12.346zM47.802 12.346c0-.417.04-.834.82-.834h1.803c.78 0 .82.417.82.834v12.221c0 .167.041.292.246.292h4.264c.574 0 .615.334.615.584v1.627c0 .417-.041.834-.82.834h-6.928c-.41 0-.82-.042-.82-.834V12.346z" fill="#000"/><path d="M63.091 11.512c4.264 0 5.535 2.544 5.535 4.588 0 2.46-1.353 3.712-2.337 4.046-.082.041-.205.083-.205.208 0 .125.04.25.123.376l2.87 6.298c.204.417 0 .834-.492.834h-2.378c-.615 0-.738-.25-.861-.5l-2.747-6.09c-.082-.167-.287-.334-.492-.334h-.45c-.247 0-.247.125-.247.292v5.798c0 .792-.41.834-.82.834h-1.803c-.41 0-.82-.042-.82-.834V12.346c0-.417.04-.834.82-.834h4.304zm-1.64 6.256c0 .25.041.334.328.334h1.066c1.271 0 2.132-.71 2.132-1.794 0-.834-.492-1.793-2.132-1.793H61.82c-.205 0-.41.042-.41.417v2.836h.041zM74.16 22.23c-.246 0-.287.166-.287.291v.751c0 1.835 1.804 1.96 2.255 1.96.902 0 1.927-.208 2.583-.459.328-.125.574.042.574.376v1.919c0 .208-.082.375-.451.5-1.107.417-2.378.5-2.952.5-1.804 0-5.165-.458-5.165-4.713v-3.962c0-1.752.45-4.713 4.386-4.713 1.107 0 4.305.167 4.305 4.713v2.21c0 .626-.328.668-.656.668H74.16v-.042zm1.927-2.545c.246 0 .246-.167.246-.25v-.5c0-.543-.082-1.67-1.189-1.67-1.189 0-1.23 1.21-1.23 1.67v.5c0 .208.123.25.246.25h1.927zM81.13 25.4c0-.168-.041-.543.369-.543.123 0 .328.083.656.167.615.167 1.64.375 2.254.375 1.025 0 1.353-.542 1.353-1.043 0-.876-1.107-1.46-1.927-2.043-1.024-.751-2.705-1.877-2.705-4.088 0-1.335.697-3.545 4.017-3.545 3.403 0 3.362 1 3.362 1.21v1.46c0 .166 0 .5-.451.5-2.296 0-.779-.46-2.583-.46-.86 0-1.025.543-1.025.793 0 .834 1.353 1.502 2.132 2.086 1.312.96 2.46 2.002 2.46 4.046 0 2.377-1.804 3.795-4.469 3.795-3.484 0-3.525-.876-3.525-1.126V25.4h.082zM99.33 27.236c0 .625-.327.667-.655.667h-2.05a.434.434 0 01-.45-.459v-.083c0-.167-.124-.167-.206-.167-.082 0-.123.083-.164.125-.574.542-1.353.75-2.009.75-1.394 0-2.951-.875-2.951-3.503v-9.051c0-.626.328-.667.656-.667h1.844c.287 0 .656.041.656.667v8.384c0 .625.41 1.084 1.066 1.084 1.148 0 1.107-1.21 1.107-1.71v-7.758c0-.626.328-.667.656-.667h1.845c.287 0 .656.041.656.667v11.72zM104.744 27.234c0 .626-.328.668-.656.668h-1.845c-.615 0-.656-.334-.656-.668V15.556c0-.626.328-.668.656-.668h2.091c.123 0 .41 0 .41.334v.25c0 .167.082.167.123.167.041 0 .123-.042.327-.208.451-.334 1.025-.751 2.05-.751.656 0 .697.25.697.542v2.294c0 .459-.41.459-.533.459h-.41c-.328 0-.984.041-1.517.625-.737.793-.696 1.877-.696 2.67v5.964h-.041zM109.009 25.4c0-.168-.041-.543.369-.543.123 0 .328.083.656.167.615.167 1.639.375 2.254.375 1.025 0 1.353-.542 1.353-1.043 0-.876-1.107-1.46-1.927-2.043-1.024-.751-2.705-1.877-2.705-4.088 0-1.335.697-3.545 4.017-3.545 3.403 0 3.362 1 3.362 1.21v1.46c0 .166 0 .5-.451.5-2.296 0-.779-.46-2.583-.46-.861 0-1.025.543-1.025.793 0 .834 1.353 1.502 2.132 2.086 1.312.96 2.46 2.002 2.46 4.046 0 2.377-1.804 3.795-4.469 3.795-3.484 0-3.525-.876-3.525-1.126V25.4h.082z" fill="#629C45"/><path d="M30.05 38.124v-5.589h1.108v2.21h1.64v-2.21h1.147v5.59h-1.148v-2.503h-1.64v2.502h-1.106zM39.437 35.495h-3.115c0 .751.082 1.252.287 1.502.205.25.45.375.737.375.493 0 .82-.333.943-1.042l1.025.125c-.287 1.168-.943 1.752-2.008 1.752-.656 0-1.19-.25-1.6-.71-.41-.5-.573-1.167-.573-2.127 0-.959.205-1.71.615-2.21.41-.543.943-.793 1.599-.793.45 0 .86.125 1.188.376.328.25.533.584.656 1.042.164.46.246 1.043.246 1.71zm-1.148-.792c0-1.001-.328-1.46-.943-1.46-.573 0-.901.5-.983 1.46h1.926zM42.596 40v-1.876c-.738-.084-1.312-.376-1.681-.876-.37-.5-.574-1.127-.574-1.835 0-1.627.738-2.545 2.255-2.837V30.7h.983v1.835c1.517.292 2.255 1.252 2.255 2.837 0 .75-.205 1.376-.574 1.877-.369.5-.943.792-1.68.876V40h-.984zm0-2.627v-4.088c-.78.25-1.148.918-1.148 2.044s.369 1.835 1.148 2.044zm.983 0c.78-.25 1.148-.918 1.148-2.044s-.369-1.794-1.148-2.044v4.088zM47.596 38.124v-4.713h-1.27v-.876h3.607v.876h-1.23v4.713h-1.107zM53.377 38.124v-2.21h-.983l-.82 2.21h-1.148l1.066-2.46c-.533-.25-.82-.71-.82-1.377 0-.5.123-.918.328-1.251.205-.334.697-.5 1.352-.5h2.173v5.588h-1.148zm0-3.003v-1.793h-.86c-.287 0-.451.083-.574.208-.123.167-.205.376-.205.71 0 .25.04.458.164.625.123.167.328.25.697.25h.778zM55.96 38.124v-5.589h1.149v2.21h1.64v-2.21h1.148v5.59h-1.148v-2.503h-1.64v2.502H55.96zM62.437 34.12l-1.107-.125c.082-.5.287-.876.656-1.168.369-.292.82-.417 1.394-.417.492 0 .902.084 1.189.292.287.209.492.459.573.71.083.291.124.708.124 1.25v1.92c0 .75.04 1.292.081 1.542h-1.065a4.643 4.643 0 01-.082-.917c-.328.709-.861 1.084-1.558 1.084-.451 0-.82-.125-1.107-.417-.287-.292-.41-.667-.41-1.168 0-.625.205-1.084.615-1.46.41-.333 1.107-.542 2.132-.542h.246v-.208c0-.417-.041-.71-.164-.918-.123-.209-.328-.292-.615-.292-.533-.042-.82.25-.902.834zm1.68 1.293c-.163 0-.245-.041-.327-.041-.984 0-1.476.375-1.476 1.167 0 .584.246.876.738.876.287 0 .533-.166.738-.459.205-.291.328-.75.328-1.293v-.25zM69.159 38.124v-2.21h-.984l-.82 2.21h-1.148l1.066-2.46c-.533-.25-.82-.71-.82-1.377 0-.5.123-.918.328-1.251.205-.334.697-.5 1.353-.5h2.172v5.588H69.16zm0-3.003v-1.793h-.861c-.287 0-.451.083-.574.208-.123.167-.205.376-.205.71 0 .25.04.458.164.625.123.167.328.25.697.25h.779zM74.738 32.535h1.148v2.503l1.763-2.503h1.107l-1.435 1.919 1.558 3.67h-1.23l-1.107-2.794-.738 1.043v1.751h-1.148v-5.589h.082zM83.672 35.288c0 2.002-.738 2.962-2.173 2.962-.656 0-1.189-.25-1.558-.71-.369-.5-.574-1.21-.574-2.21 0-1.96.738-2.92 2.173-2.92.656 0 1.189.25 1.558.71.41.458.574 1.209.574 2.168zm-1.19.042c0-.793-.081-1.335-.245-1.627-.164-.292-.41-.459-.697-.459-.615 0-.943.668-.943 2.044 0 .71.082 1.21.205 1.543.164.334.41.501.738.501s.574-.167.738-.5c.123-.293.205-.793.205-1.502zM84.941 38.124v-5.589h1.64l1.148 4.672 1.107-4.672h1.558v5.59h-1.025v-4.547l-1.189 4.546h-1.148l-1.189-4.546v4.546h-.902zM91.953 38.124v-5.589h3.69v5.59h-1.148v-4.797H93.06v4.796h-1.107zM98.226 34.12l-1.107-.125c.082-.5.287-.876.656-1.168.369-.292.86-.417 1.394-.417.492 0 .902.084 1.189.292.287.209.492.459.574.71.082.291.123.708.123 1.25v1.92c0 .75.041 1.292.082 1.542h-1.066a4.638 4.638 0 01-.082-.917c-.328.709-.861 1.084-1.558 1.084-.451 0-.82-.125-1.107-.417-.287-.292-.41-.667-.41-1.168 0-.625.205-1.084.615-1.46.41-.333 1.107-.542 2.132-.542h.246v-.208c0-.417-.041-.71-.164-.918-.123-.209-.328-.292-.615-.292-.533-.042-.82.25-.902.834zm1.68 1.293c-.163 0-.245-.041-.327-.041-.984 0-1.476.375-1.476 1.167 0 .584.246.876.738.876.287 0 .533-.166.738-.459.205-.291.328-.75.328-1.293v-.25zM102.531 38.124v-5.589h1.148v2.21h1.64v-2.21h1.148v5.59h-1.148v-2.503h-1.64v2.502h-1.148zM109.088 37.54v.584h-1.148v-5.589h1.148v2.42c0 .583 0 .959-.041 1.167.164-.334.369-.709.574-1.084l1.107-1.794v-.709h1.148v5.59h-1.148V35.83c0-.625 0-1 .041-1.168a5.852 5.852 0 01-.656 1.21l-1.025 1.668zM115.893 38.124v-2.21h-.984l-.82 2.21h-1.148l1.066-2.46c-.533-.25-.82-.71-.82-1.377 0-.5.123-.918.328-1.251.205-.334.697-.5 1.353-.5h2.173v5.588h-1.148zm0-3.003v-1.793h-.861c-.287 0-.451.083-.574.208-.123.167-.205.376-.205.71 0 .25.041.458.164.625.123.167.328.25.697.25h.779z" fill="#000"/><path d="M.174 28.245c-.676-4.213 1.276-7.905 2.081-9.728 5.433-1.667 17.1-4.807 18.038-3.816.878.93 3.28 6.918 4.25 10.153l-14.356 6.322c-2.91.588-9.398.9-10.013-2.93z" fill="#fff"/><path d="M20.334 14.724a217.797 217.797 0 00-2.747-4.547C14.43 5.047 12.34 0 12.34 0S10.208 5.047 7.05 10.177c-1.64 2.628-3.443 5.548-4.796 8.342.45.042.902.042 1.353.042 8.486.042 8.69-3.629 16.726-3.837z" fill="url(#bpaint0_linear)"/><path d="M3.608 28.488c-1.312 0-2.46-.083-3.444-.25.779 4.421 4.018 10.01 12.135 10.01 9.634 0 12.421-7.924 12.34-12.346 0-.333-.042-.667-.083-1.042-1.025-.167-2.173-.25-3.566-.25-8.691.041-8.691 3.878-17.382 3.878z" fill="url(#bpaint1_linear)"/><path d="M21.03 16.475c-8.732 0-8.732 3.838-17.422 3.838-.78 0-1.476-.042-2.132-.084C.615 22.273.04 24.192 0 25.902v.542c1.025.167 2.214.292 3.608.292 8.69 0 8.69-3.88 17.381-3.88 1.23 0 2.255.084 3.198.21-.574-2.086-1.64-4.38-2.87-6.632-.122.041-.204.041-.287.041z" fill="#000"/></g><defs><linearGradient id="bpaint0_linear" x1="-2.757" y1="9.291" x2="26.335" y2="9.291" gradientUnits="userSpaceOnUse"><stop stop-color="#8DC63F"/><stop offset="1" stop-color="#42712E"/></linearGradient><linearGradient id="bpaint1_linear" x1="-3.333" y1="31.456" x2="28.333" y2="31.456" gradientUnits="userSpaceOnUse"><stop stop-color="#8DC63F"/><stop offset="1" stop-color="#42712E"/></linearGradient><clipPath id="bclip0"><path fill="#fff" d="M0 0h117v40H0z"/></clipPath></defs></svg>