<?xml version="1.0" encoding="utf-8"?><svg aria-hidden="true" style="position:absolute;width:0;height:0" xmlns="http://www.w3.org/2000/svg" overflow="hidden" viewBox="0 0 0 0" width="0" height="0"><defs><symbol id="cchart" viewBox="0 0 32 32"><path d="M31.342 26.14H5.992V.658C5.992.263 5.728 0 5.333 0s-.658.263-.658.658V26.14H.658c-.395 0-.658.263-.658.658s.263.659.658.659h4.017v3.885c0 .395.263.658.658.658s.659-.263.659-.658v-3.885h25.35c.395 0 .658-.264.658-.659a.66.66 0 00-.658-.658z" fill="#72AF32"/><path d="M26.995 14.748l3.556-3.753a.636.636 0 000-.922.637.637 0 00-.922 0l-3.49 3.687-8.099-8.691a.711.711 0 00-.46-.198.598.598 0 00-.461.198l-8.824 9.415c-.263.264-.263.659.066.922.264.263.659.263.922-.066l8.23-8.889 7.638 8.297-3.423 3.621-4.083-5.136c-.131-.132-.263-.263-.46-.263a.748.748 0 00-.527.197L8.36 21.332a.636.636 0 000 .922c.132.131.33.197.461.197.198 0 .33-.066.461-.197l7.836-7.704 4.082 5.202c.131.131.329.263.46.263a.748.748 0 00.527-.197l3.885-4.083 3.49 3.82c.132.13.33.197.46.197.133 0 .33-.066.462-.198a.705.705 0 00.066-.922l-3.556-3.884z" fill="#72AF32"/></symbol><symbol id="ctablet" viewBox="0 0 38 38"><path d="M11.804 8.304H26.15a.49.49 0 000-.984H11.804a.492.492 0 100 .984z" fill="#72AF32" stroke="#72AF32" stroke-width=".2"/><path d="M6.152 5.91v27.548c.003.85.692 1.54 1.542 1.542h22.565a1.544 1.544 0 001.542-1.542V5.91a1.543 1.543 0 00-1.542-1.541h-7.493a3.815 3.815 0 00-7.578 0H7.694c-.85 0-1.54.69-1.542 1.541zm24.662 27.548c0 .308-.249.557-.557.557H7.694a.557.557 0 01-.557-.557V10.672h23.681l-.004 22.786zM18.977 1.974a2.834 2.834 0 012.795 2.395h-5.576a2.833 2.833 0 012.781-2.395zM30.26 5.351a.56.56 0 01.56.56v3.777H7.136V5.91c0-.308.25-.559.557-.559h22.565z" fill="#72AF32" stroke="#72AF32" stroke-width=".2"/><path d="M18.389 17h9.22c.215 0 .39-.224.39-.5 0-.277-.175-.5-.39-.5h-9.22c-.216 0-.39.223-.39.5 0 .276.174.5.39.5zM18.389 22h9.22c.215 0 .39-.224.39-.5s-.175-.5-.39-.5h-9.22c-.216 0-.39.224-.39.5s.174.5.39.5zM18.389 27h9.22c.215 0 .39-.225.39-.5 0-.276-.175-.5-.39-.5h-9.22c-.216 0-.39.224-.39.5 0 .275.174.5.39.5zM11.184 18.37c.077.11.196.183.327.204h.073a.493.493 0 00.302-.105l3.134-2.449a.492.492 0 10-.602-.765l-2.726 2.133-.476-.679a.491.491 0 10-.807.563l.775 1.098zM11.185 23.427c.077.11.195.184.327.204h.073a.5.5 0 00.302-.106l3.134-2.45a.49.49 0 10-.583-.79.383.383 0 00-.023.017l-2.723 2.135-.475-.679a.493.493 0 10-.807.547l.775 1.122zM11.183 28.498c.077.11.196.182.327.203h.073a.493.493 0 00.302-.105l3.134-2.45a.492.492 0 10-.583-.792l-.022.017-2.726 2.129-.475-.679a.494.494 0 00-.808.565l.778 1.112z" fill="#72AF32" stroke="#72AF32" stroke-width=".2"/></symbol><symbol id="cproduct" viewBox="0 0 35 35"><path d="M26.25 15.313V9.296a1.64 1.64 0 00-3.281 0v6.015a1.64 1.64 0 103.281 0zm-2.188 0V9.296a.547.547 0 111.094 0v6.015a.547.547 0 01-1.093 0z" fill="#72AF32"/><path d="M14.766 3.828h-3.282a.547.547 0 00-.546.547v1.71a2.191 2.191 0 00-1.641 2.118V12.9l-.387.386a.545.545 0 00-.16.387v2.187h1.094V13.9l7.336-7.336h7.43a2.737 2.737 0 012.734 2.734v22.422a1.095 1.095 0 01-1.094 1.093h-.547v1.094h.547a2.19 2.19 0 002.188-2.187V9.297a3.832 3.832 0 00-3.829-3.828h-7.656a.547.547 0 00-.387.16l-.386.387h-.867V4.375a.547.547 0 00-.547-.547zm-.547 1.094v1.094H12.03V4.922h2.188zm-3.828 6.883V8.203a1.095 1.095 0 011.093-1.094h3.602l-4.695 4.696z" fill="#72AF32"/><path d="M6.563 18.973v13.293a1.643 1.643 0 001.64 1.64h6.563v-1.093H8.203a.547.547 0 01-.547-.547v-1.641h6.016a.547.547 0 00.547-.547v-8.75a.547.547 0 00-.547-.547H7.656v-1.808a.545.545 0 01.457-.539l6.196-1.033a.546.546 0 00.45-.46l.16-1.082h1.487v2.735H17.5v-5.469a.547.547 0 00-.547-.547h-2.187a.547.547 0 00-.541.468l-.49 3.342-5.802.967a1.636 1.636 0 00-1.37 1.618zm6.562 2.902v7.656H7.656v-7.656h5.469zm3.281-8.203v1.094h-1.328l.16-1.094h1.168z" fill="#72AF32"/><path d="M21.328 16.406h-2.187a.547.547 0 00-.547.547v1.878l-2.47 1.481a.546.546 0 00-.265.47v11.484a1.643 1.643 0 001.641 1.64h5.469a1.643 1.643 0 001.64-1.64V20.78a.547.547 0 00-.265-.469l-2.469-1.481v-1.878a.547.547 0 00-.547-.547zm-.547 1.094v1.094h-1.093V17.5h1.093zm-3.828 6.563h6.563v4.921h-6.563v-4.922zm6.016 8.75H17.5a.547.547 0 01-.547-.547v-2.188h6.563v2.188a.547.547 0 01-.547.547zm.547-9.844h-6.563V21.09l2.34-1.404h1.884l2.339 1.404v1.878z" fill="#72AF32"/></symbol></defs></svg>