<?xml version="1.0" encoding="utf-8"?><svg viewBox="0 0 117 40" xmlns="http://www.w3.org/2000/svg" xmlns:xlink="http://www.w3.org/1999/xlink"><style>:root>svg{display:none}:root>svg:target{display:block}</style><svg fill="none" viewBox="0 0 10 10" id="checkbox" xmlns="http://www.w3.org/2000/svg"><g clip-path="url(#aclip0)"><path d="M0 5.32l3.424 3.43L10 2.181l-.944-.931-5.632 5.625L.931 4.382 0 5.319z" fill="#72AF32"/></g><defs><clipPath id="aclip0"><path fill="#fff" d="M0 0h10v10H0z"/></clipPath></defs></svg><svg fill="none" viewBox="0 0 117 40" id="logo" xmlns="http://www.w3.org/2000/svg"><g clip-path="url(#bclip0)"><path d="M29.927 17.475c0-1.501-.082-6.131 5.001-6.131 4.674 0 5.002 3.92 5.002 6.131v4.463c0 1.46.082 6.132-5.002 6.132-5.083 0-5.001-4.672-5.001-6.174v-4.42zm6.6.375c0-1.96-.04-3.503-1.599-3.503-1.599 0-1.599 1.543-1.599 3.504v3.628c0 1.96.041 3.504 1.6 3.504 1.598 0 1.598-1.543 1.598-3.504v-3.628zM42.102 12.346c0-.417.042-.834.82-.834h1.804c.78 0 .82.417.82.834V27.07c0 .792-.41.834-.82.834h-1.804c-.41 0-.82-.042-.82-.834V12.346zM47.802 12.346c0-.417.04-.834.82-.834h1.803c.78 0 .82.417.82.834v12.221c0 .167.041.292.246.292h4.264c.574 0 .615.334.615.584v1.627c0 .417-.041.834-.82.834h-6.928c-.41 0-.82-.042-.82-.834V12.346z" fill="#000"/><path d="M63.091 11.512c4.264 0 5.535 2.544 5.535 4.588 0 2.46-1.353 3.712-2.337 4.046-.082.041-.205.083-.205.208 0 .125.04.25.123.376l2.87 6.298c.204.417 0 .834-.492.834h-2.378c-.615 0-.738-.25-.861-.5l-2.747-6.09c-.082-.167-.287-.334-.492-.334h-.45c-.247 0-.247.125-.247.292v5.798c0 .792-.41.834-.82.834h-1.803c-.41 0-.82-.042-.82-.834V12.346c0-.417.04-.834.82-.834h4.304zm-1.64 6.256c0 .25.041.334.328.334h1.066c1.271 0 2.132-.71 2.132-1.794 0-.834-.492-1.793-2.132-1.793H61.82c-.205 0-.41.042-.41.417v2.836h.041zM74.16 22.23c-.246 0-.287.166-.287.291v.751c0 1.835 1.804 1.96 2.255 1.96.902 0 1.927-.208 2.583-.459.328-.125.574.042.574.376v1.919c0 .208-.082.375-.451.5-1.107.417-2.378.5-2.952.5-1.804 0-5.165-.458-5.165-4.713v-3.962c0-1.752.45-4.713 4.386-4.713 1.107 0 4.305.167 4.305 4.713v2.21c0 .626-.328.668-.656.668H74.16v-.042zm1.927-2.545c.246 0 .246-.167.246-.25v-.5c0-.543-.082-1.67-1.189-1.67-1.189 0-1.23 1.21-1.23 1.67v.5c0 .208.123.25.246.25h1.927zM81.13 25.4c0-.168-.041-.543.369-.543.123 0 .328.083.656.167.615.167 1.64.375 2.254.375 1.025 0 1.353-.542 1.353-1.043 0-.876-1.107-1.46-1.927-2.043-1.024-.751-2.705-1.877-2.705-4.088 0-1.335.697-3.545 4.017-3.545 3.403 0 3.362 1 3.362 1.21v1.46c0 .166 0 .5-.451.5-2.296 0-.779-.46-2.583-.46-.86 0-1.025.543-1.025.793 0 .834 1.353 1.502 2.132 2.086 1.312.96 2.46 2.002 2.46 4.046 0 2.377-1.804 3.795-4.469 3.795-3.484 0-3.525-.876-3.525-1.126V25.4h.082zM99.33 27.236c0 .625-.327.667-.655.667h-2.05a.434.434 0 01-.45-.459v-.083c0-.167-.124-.167-.206-.167-.082 0-.123.083-.164.125-.574.542-1.353.75-2.009.75-1.394 0-2.951-.875-2.951-3.503v-9.051c0-.626.328-.667.656-.667h1.844c.287 0 .656.041.656.667v8.384c0 .625.41 1.084 1.066 1.084 1.148 0 1.107-1.21 1.107-1.71v-7.758c0-.626.328-.667.656-.667h1.845c.287 0 .656.041.656.667v11.72zM104.744 27.234c0 .626-.328.668-.656.668h-1.845c-.615 0-.656-.334-.656-.668V15.556c0-.626.328-.668.656-.668h2.091c.123 0 .41 0 .41.334v.25c0 .167.082.167.123.167.041 0 .123-.042.327-.208.451-.334 1.025-.751 2.05-.751.656 0 .697.25.697.542v2.294c0 .459-.41.459-.533.459h-.41c-.328 0-.984.041-1.517.625-.737.793-.696 1.877-.696 2.67v5.964h-.041zM109.009 25.4c0-.168-.041-.543.369-.543.123 0 .328.083.656.167.615.167 1.639.375 2.254.375 1.025 0 1.353-.542 1.353-1.043 0-.876-1.107-1.46-1.927-2.043-1.024-.751-2.705-1.877-2.705-4.088 0-1.335.697-3.545 4.017-3.545 3.403 0 3.362 1 3.362 1.21v1.46c0 .166 0 .5-.451.5-2.296 0-.779-.46-2.583-.46-.861 0-1.025.543-1.025.793 0 .834 1.353 1.502 2.132 2.086 1.312.96 2.46 2.002 2.46 4.046 0 2.377-1.804 3.795-4.469 3.795-3.484 0-3.525-.876-3.525-1.126V25.4h.082z" fill="#629C45"/><path d="M30.05 38.124v-5.589h1.108v2.21h1.64v-2.21h1.147v5.59h-1.148v-2.503h-1.64v2.502h-1.106zM39.437 35.495h-3.115c0 .751.082 1.252.287 1.502.205.25.45.375.737.375.493 0 .82-.333.943-1.042l1.025.125c-.287 1.168-.943 1.752-2.008 1.752-.656 0-1.19-.25-1.6-.71-.41-.5-.573-1.167-.573-2.127 0-.959.205-1.71.615-2.21.41-.543.943-.793 1.599-.793.45 0 .86.125 1.188.376.328.25.533.584.656 1.042.164.46.246 1.043.246 1.71zm-1.148-.792c0-1.001-.328-1.46-.943-1.46-.573 0-.901.5-.983 1.46h1.926zM42.596 40v-1.876c-.738-.084-1.312-.376-1.681-.876-.37-.5-.574-1.127-.574-1.835 0-1.627.738-2.545 2.255-2.837V30.7h.983v1.835c1.517.292 2.255 1.252 2.255 2.837 0 .75-.205 1.376-.574 1.877-.369.5-.943.792-1.68.876V40h-.984zm0-2.627v-4.088c-.78.25-1.148.918-1.148 2.044s.369 1.835 1.148 2.044zm.983 0c.78-.25 1.148-.918 1.148-2.044s-.369-1.794-1.148-2.044v4.088zM47.596 38.124v-4.713h-1.27v-.876h3.607v.876h-1.23v4.713h-1.107zM53.377 38.124v-2.21h-.983l-.82 2.21h-1.148l1.066-2.46c-.533-.25-.82-.71-.82-1.377 0-.5.123-.918.328-1.251.205-.334.697-.5 1.352-.5h2.173v5.588h-1.148zm0-3.003v-1.793h-.86c-.287 0-.451.083-.574.208-.123.167-.205.376-.205.71 0 .25.04.458.164.625.123.167.328.25.697.25h.778zM55.96 38.124v-5.589h1.149v2.21h1.64v-2.21h1.148v5.59h-1.148v-2.503h-1.64v2.502H55.96zM62.437 34.12l-1.107-.125c.082-.5.287-.876.656-1.168.369-.292.82-.417 1.394-.417.492 0 .902.084 1.189.292.287.209.492.459.573.71.083.291.124.708.124 1.25v1.92c0 .75.04 1.292.081 1.542h-1.065a4.643 4.643 0 01-.082-.917c-.328.709-.861 1.084-1.558 1.084-.451 0-.82-.125-1.107-.417-.287-.292-.41-.667-.41-1.168 0-.625.205-1.084.615-1.46.41-.333 1.107-.542 2.132-.542h.246v-.208c0-.417-.041-.71-.164-.918-.123-.209-.328-.292-.615-.292-.533-.042-.82.25-.902.834zm1.68 1.293c-.163 0-.245-.041-.327-.041-.984 0-1.476.375-1.476 1.167 0 .584.246.876.738.876.287 0 .533-.166.738-.459.205-.291.328-.75.328-1.293v-.25zM69.159 38.124v-2.21h-.984l-.82 2.21h-1.148l1.066-2.46c-.533-.25-.82-.71-.82-1.377 0-.5.123-.918.328-1.251.205-.334.697-.5 1.353-.5h2.172v5.588H69.16zm0-3.003v-1.793h-.861c-.287 0-.451.083-.574.208-.123.167-.205.376-.205.71 0 .25.04.458.164.625.123.167.328.25.697.25h.779zM74.738 32.535h1.148v2.503l1.763-2.503h1.107l-1.435 1.919 1.558 3.67h-1.23l-1.107-2.794-.738 1.043v1.751h-1.148v-5.589h.082zM83.672 35.288c0 2.002-.738 2.962-2.173 2.962-.656 0-1.189-.25-1.558-.71-.369-.5-.574-1.21-.574-2.21 0-1.96.738-2.92 2.173-2.92.656 0 1.189.25 1.558.71.41.458.574 1.209.574 2.168zm-1.19.042c0-.793-.081-1.335-.245-1.627-.164-.292-.41-.459-.697-.459-.615 0-.943.668-.943 2.044 0 .71.082 1.21.205 1.543.164.334.41.501.738.501s.574-.167.738-.5c.123-.293.205-.793.205-1.502zM84.941 38.124v-5.589h1.64l1.148 4.672 1.107-4.672h1.558v5.59h-1.025v-4.547l-1.189 4.546h-1.148l-1.189-4.546v4.546h-.902zM91.953 38.124v-5.589h3.69v5.59h-1.148v-4.797H93.06v4.796h-1.107zM98.226 34.12l-1.107-.125c.082-.5.287-.876.656-1.168.369-.292.86-.417 1.394-.417.492 0 .902.084 1.189.292.287.209.492.459.574.71.082.291.123.708.123 1.25v1.92c0 .75.041 1.292.082 1.542h-1.066a4.638 4.638 0 01-.082-.917c-.328.709-.861 1.084-1.558 1.084-.451 0-.82-.125-1.107-.417-.287-.292-.41-.667-.41-1.168 0-.625.205-1.084.615-1.46.41-.333 1.107-.542 2.132-.542h.246v-.208c0-.417-.041-.71-.164-.918-.123-.209-.328-.292-.615-.292-.533-.042-.82.25-.902.834zm1.68 1.293c-.163 0-.245-.041-.327-.041-.984 0-1.476.375-1.476 1.167 0 .584.246.876.738.876.287 0 .533-.166.738-.459.205-.291.328-.75.328-1.293v-.25zM102.531 38.124v-5.589h1.148v2.21h1.64v-2.21h1.148v5.59h-1.148v-2.503h-1.64v2.502h-1.148zM109.088 37.54v.584h-1.148v-5.589h1.148v2.42c0 .583 0 .959-.041 1.167.164-.334.369-.709.574-1.084l1.107-1.794v-.709h1.148v5.59h-1.148V35.83c0-.625 0-1 .041-1.168a5.852 5.852 0 01-.656 1.21l-1.025 1.668zM115.893 38.124v-2.21h-.984l-.82 2.21h-1.148l1.066-2.46c-.533-.25-.82-.71-.82-1.377 0-.5.123-.918.328-1.251.205-.334.697-.5 1.353-.5h2.173v5.588h-1.148zm0-3.003v-1.793h-.861c-.287 0-.451.083-.574.208-.123.167-.205.376-.205.71 0 .25.041.458.164.625.123.167.328.25.697.25h.779z" fill="#000"/><path d="M.174 28.245c-.676-4.213 1.276-7.905 2.081-9.728 5.433-1.667 17.1-4.807 18.038-3.816.878.93 3.28 6.918 4.25 10.153l-14.356 6.322c-2.91.588-9.398.9-10.013-2.93z" fill="#fff"/><path d="M20.334 14.724a217.797 217.797 0 00-2.747-4.547C14.43 5.047 12.34 0 12.34 0S10.208 5.047 7.05 10.177c-1.64 2.628-3.443 5.548-4.796 8.342.45.042.902.042 1.353.042 8.486.042 8.69-3.629 16.726-3.837z" fill="url(#bpaint0_linear)"/><path d="M3.608 28.488c-1.312 0-2.46-.083-3.444-.25.779 4.421 4.018 10.01 12.135 10.01 9.634 0 12.421-7.924 12.34-12.346 0-.333-.042-.667-.083-1.042-1.025-.167-2.173-.25-3.566-.25-8.691.041-8.691 3.878-17.382 3.878z" fill="url(#bpaint1_linear)"/><path d="M21.03 16.475c-8.732 0-8.732 3.838-17.422 3.838-.78 0-1.476-.042-2.132-.084C.615 22.273.04 24.192 0 25.902v.542c1.025.167 2.214.292 3.608.292 8.69 0 8.69-3.88 17.381-3.88 1.23 0 2.255.084 3.198.21-.574-2.086-1.64-4.38-2.87-6.632-.122.041-.204.041-.287.041z" fill="#000"/></g><defs><linearGradient id="bpaint0_linear" x1="-2.757" y1="9.291" x2="26.335" y2="9.291" gradientUnits="userSpaceOnUse"><stop stop-color="#8DC63F"/><stop offset="1" stop-color="#42712E"/></linearGradient><linearGradient id="bpaint1_linear" x1="-3.333" y1="31.456" x2="28.333" y2="31.456" gradientUnits="userSpaceOnUse"><stop stop-color="#8DC63F"/><stop offset="1" stop-color="#42712E"/></linearGradient><clipPath id="bclip0"><path fill="#fff" d="M0 0h117v40H0z"/></clipPath></defs></svg><svg aria-hidden="true" style="position:absolute;width:0;height:0" overflow="hidden" viewBox="0 0 0 0" id="symbol-defs" xmlns="http://www.w3.org/2000/svg"><defs><symbol id="cchart" viewBox="0 0 32 32"><path d="M31.342 26.14H5.992V.658C5.992.263 5.728 0 5.333 0s-.658.263-.658.658V26.14H.658c-.395 0-.658.263-.658.658s.263.659.658.659h4.017v3.885c0 .395.263.658.658.658s.659-.263.659-.658v-3.885h25.35c.395 0 .658-.264.658-.659a.66.66 0 00-.658-.658z" fill="#72AF32"/><path d="M26.995 14.748l3.556-3.753a.636.636 0 000-.922.637.637 0 00-.922 0l-3.49 3.687-8.099-8.691a.711.711 0 00-.46-.198.598.598 0 00-.461.198l-8.824 9.415c-.263.264-.263.659.066.922.264.263.659.263.922-.066l8.23-8.889 7.638 8.297-3.423 3.621-4.083-5.136c-.131-.132-.263-.263-.46-.263a.748.748 0 00-.527.197L8.36 21.332a.636.636 0 000 .922c.132.131.33.197.461.197.198 0 .33-.066.461-.197l7.836-7.704 4.082 5.202c.131.131.329.263.46.263a.748.748 0 00.527-.197l3.885-4.083 3.49 3.82c.132.13.33.197.46.197.133 0 .33-.066.462-.198a.705.705 0 00.066-.922l-3.556-3.884z" fill="#72AF32"/></symbol><symbol id="ctablet" viewBox="0 0 38 38"><path d="M11.804 8.304H26.15a.49.49 0 000-.984H11.804a.492.492 0 100 .984z" fill="#72AF32" stroke="#72AF32" stroke-width=".2"/><path d="M6.152 5.91v27.548c.003.85.692 1.54 1.542 1.542h22.565a1.544 1.544 0 001.542-1.542V5.91a1.543 1.543 0 00-1.542-1.541h-7.493a3.815 3.815 0 00-7.578 0H7.694c-.85 0-1.54.69-1.542 1.541zm24.662 27.548c0 .308-.249.557-.557.557H7.694a.557.557 0 01-.557-.557V10.672h23.681l-.004 22.786zM18.977 1.974a2.834 2.834 0 012.795 2.395h-5.576a2.833 2.833 0 012.781-2.395zM30.26 5.351a.56.56 0 01.56.56v3.777H7.136V5.91c0-.308.25-.559.557-.559h22.565z" fill="#72AF32" stroke="#72AF32" stroke-width=".2"/><path d="M18.389 17h9.22c.215 0 .39-.224.39-.5 0-.277-.175-.5-.39-.5h-9.22c-.216 0-.39.223-.39.5 0 .276.174.5.39.5zM18.389 22h9.22c.215 0 .39-.224.39-.5s-.175-.5-.39-.5h-9.22c-.216 0-.39.224-.39.5s.174.5.39.5zM18.389 27h9.22c.215 0 .39-.225.39-.5 0-.276-.175-.5-.39-.5h-9.22c-.216 0-.39.224-.39.5 0 .275.174.5.39.5zM11.184 18.37c.077.11.196.183.327.204h.073a.493.493 0 00.302-.105l3.134-2.449a.492.492 0 10-.602-.765l-2.726 2.133-.476-.679a.491.491 0 10-.807.563l.775 1.098zM11.185 23.427c.077.11.195.184.327.204h.073a.5.5 0 00.302-.106l3.134-2.45a.49.49 0 10-.583-.79.383.383 0 00-.023.017l-2.723 2.135-.475-.679a.493.493 0 10-.807.547l.775 1.122zM11.183 28.498c.077.11.196.182.327.203h.073a.493.493 0 00.302-.105l3.134-2.45a.492.492 0 10-.583-.792l-.022.017-2.726 2.129-.475-.679a.494.494 0 00-.808.565l.778 1.112z" fill="#72AF32" stroke="#72AF32" stroke-width=".2"/></symbol><symbol id="cproduct" viewBox="0 0 35 35"><path d="M26.25 15.313V9.296a1.64 1.64 0 00-3.281 0v6.015a1.64 1.64 0 103.281 0zm-2.188 0V9.296a.547.547 0 111.094 0v6.015a.547.547 0 01-1.093 0z" fill="#72AF32"/><path d="M14.766 3.828h-3.282a.547.547 0 00-.546.547v1.71a2.191 2.191 0 00-1.641 2.118V12.9l-.387.386a.545.545 0 00-.16.387v2.187h1.094V13.9l7.336-7.336h7.43a2.737 2.737 0 012.734 2.734v22.422a1.095 1.095 0 01-1.094 1.093h-.547v1.094h.547a2.19 2.19 0 002.188-2.187V9.297a3.832 3.832 0 00-3.829-3.828h-7.656a.547.547 0 00-.387.16l-.386.387h-.867V4.375a.547.547 0 00-.547-.547zm-.547 1.094v1.094H12.03V4.922h2.188zm-3.828 6.883V8.203a1.095 1.095 0 011.093-1.094h3.602l-4.695 4.696z" fill="#72AF32"/><path d="M6.563 18.973v13.293a1.643 1.643 0 001.64 1.64h6.563v-1.093H8.203a.547.547 0 01-.547-.547v-1.641h6.016a.547.547 0 00.547-.547v-8.75a.547.547 0 00-.547-.547H7.656v-1.808a.545.545 0 01.457-.539l6.196-1.033a.546.546 0 00.45-.46l.16-1.082h1.487v2.735H17.5v-5.469a.547.547 0 00-.547-.547h-2.187a.547.547 0 00-.541.468l-.49 3.342-5.802.967a1.636 1.636 0 00-1.37 1.618zm6.562 2.902v7.656H7.656v-7.656h5.469zm3.281-8.203v1.094h-1.328l.16-1.094h1.168z" fill="#72AF32"/><path d="M21.328 16.406h-2.187a.547.547 0 00-.547.547v1.878l-2.47 1.481a.546.546 0 00-.265.47v11.484a1.643 1.643 0 001.641 1.64h5.469a1.643 1.643 0 001.64-1.64V20.78a.547.547 0 00-.265-.469l-2.469-1.481v-1.878a.547.547 0 00-.547-.547zm-.547 1.094v1.094h-1.093V17.5h1.093zm-3.828 6.563h6.563v4.921h-6.563v-4.922zm6.016 8.75H17.5a.547.547 0 01-.547-.547v-2.188h6.563v2.188a.547.547 0 01-.547.547zm.547-9.844h-6.563V21.09l2.34-1.404h1.884l2.339 1.404v1.878z" fill="#72AF32"/></symbol></defs></svg></svg>